<?xml version="1.0" encoding="utf-8"?>
<!-- Generator: Adobe Illustrator 16.0.0, SVG Export Plug-In . SVG Version: 6.00 Build 0)  -->
<!DOCTYPE svg PUBLIC "-//W3C//DTD SVG 1.1//EN" "http://www.w3.org/Graphics/SVG/1.1/DTD/svg11.dtd">
<svg version="1.1" xmlns="http://www.w3.org/2000/svg" xmlns:xlink="http://www.w3.org/1999/xlink" x="0px" y="0px" width="1406px"
	 height="489px" viewBox="0 0 1406 489" enable-background="new 0 0 1406 489" xml:space="preserve">
<g id="logo-bg-dark">
	<g id="test-tube">
		<path id="shadow_2_" opacity="0.3" d="M802.411,80.363c-0.151,0.607-0.155,1.259-0.027,1.948c0,0,2.065,13.708-0.279,19.809
			L702.43,361.291l0.008,0.003c-7.113,19.036,2.419,40.289,21.429,47.601c19.009,7.311,40.325-2.079,47.801-20.976l0.009,0.004
			l99.675-259.172c1.949-5.07,13.064-14.892,13.064-14.892c0.558-0.425,0.99-0.913,1.285-1.464l0.049-0.101
			c0.054-0.108,0.116-0.212,0.159-0.325c2.57-6.683-14.008-19.279-37.028-28.132c-23.021-8.854-43.767-10.613-46.337-3.93
			c-0.044,0.113-0.068,0.231-0.101,0.348L802.411,80.363z"/>
		
			<linearGradient id="tube_3_" gradientUnits="userSpaceOnUse" x1="724.5791" y1="335.6963" x2="787.7346" y2="398.8518" gradientTransform="matrix(0.9138 -0.4062 0.4062 0.9138 -56.6658 215.7002)">
			<stop  offset="0" style="stop-color:#919191"/>
			<stop  offset="1" style="stop-color:#FFFFFF"/>
		</linearGradient>
		<path id="tube_2_" fill="url(#tube_3_)" d="M799.53,78.16c-0.152,0.607-0.156,1.259-0.027,1.948c0,0,2.065,13.708-0.28,19.809
			l-99.675,259.171l0.009,0.003c-7.113,19.036,2.419,40.289,21.429,47.601c19.008,7.311,40.325-2.079,47.801-20.976l0.009,0.004
			l99.675-259.172c1.948-5.07,13.064-14.892,13.064-14.892c0.558-0.425,0.99-0.912,1.285-1.464l0.048-0.101
			c0.054-0.108,0.116-0.212,0.159-0.325c2.57-6.683-14.008-19.279-37.027-28.132c-23.021-8.854-43.767-10.613-46.337-3.93
			c-0.044,0.113-0.068,0.231-0.101,0.348L799.53,78.16z"/>
		
			<linearGradient id="liquid_2_" gradientUnits="userSpaceOnUse" x1="700.832" y1="383.875" x2="739.0662" y2="422.1092" gradientTransform="matrix(0.9138 -0.4062 0.4062 0.9138 -56.6658 215.7002)">
			<stop  offset="0" style="stop-color:#990000"/>
			<stop  offset="1" style="stop-color:#E80000"/>
		</linearGradient>
		<path id="liquid" fill="url(#liquid_2_)" d="M830.797,195.407l-71.88,186.9l0.047,0.018
			c-5.302,13.396-20.729,20.365-34.416,15.102s-21.094-21.015-16.053-34.512l0,0l45.93-119.426c0,0,5.736-9.253,16.999-15.836
			c11.263-6.583,20.551-5.193,33.058-10.752C816.987,211.341,830.797,195.407,830.797,195.407z"/>
		
			<ellipse id="top" transform="matrix(0.9334 0.359 -0.359 0.9334 89.9472 -295.6295)" fill="#333333" cx="841.085" cy="94.407" rx="27.717" ry="7.29"/>
		<path id="side-reflection" opacity="0.3" fill="#FFFFFF" d="M799.503,80.107c0,0,2.035,13.787-0.28,19.809l-99.675,259.171
			l0.009,0.003c-7.113,19.036,2.419,40.289,21.429,47.601c3.299,1.269,6.666,2.022,10.02,2.324
			c-12.813-9.64-18.312-26.88-12.433-42.611l-0.009-0.003l97.697-254.031C816.261,112.371,802.962,99.884,799.503,80.107z"/>
		<g id="bubbles">
			<circle opacity="0.5" fill="#FFFFFF" cx="767.412" cy="247.294" r="2.888"/>
			<circle opacity="0.5" fill="#FFFFFF" cx="786.344" cy="268.235" r="4.354"/>
			<circle opacity="0.5" fill="#FFFFFF" cx="757.443" cy="293.138" r="8.167"/>
			<circle opacity="0.5" fill="#FFFFFF" cx="744.219" cy="308.241" r="4.354"/>
			<circle opacity="0.5" fill="#FFFFFF" cx="761.563" cy="340.542" r="2.888"/>
		</g>
	</g>
	<g id="jekyll-text">
		<g opacity="0.3">
			<g>
				<path d="M253.384,231.366c4.415,3.528,12.361,1.47,17.659-4.411c5.592-6.175,6.475-14.115,2.061-17.644
					c-4.416-3.529-12.362-1.47-17.66,4.705C249.852,220.191,248.969,227.837,253.384,231.366z M240.434,242.835
					c-1.177,0-3.237,2.058-1.472,2.94c2.354,0.882,3.532,2.939,3.532,5.881c-2.06,12.057-17.07,25.877-22.957,30.582
					c-1.472,1.471,0.589,4.705,2.06,3.529c3.238-2.646,10.007-7.94,15.6-14.998c-9.124,20.291-26.784,46.462-33.553,55.578
					c-26.488,36.757-66.811,70.574-94.477,70.574c-22.074,0-40.911-14.997-45.031-37.052c-0.294-2.353-3.532-2.94-2.943,0.294
					c5.003,30.289,28.255,42.051,56.51,42.051c30.904,0,67.178-22.392,87.126-45.306c32.279-37.078,53.265-79.67,47.673-103.782
					C250.147,244.011,243.966,242.54,240.434,242.835z M439.013,323.465c8.535-2.059,15.599-6.835,15.599-14.222
					c0-0.738-1.472-0.738-1.472,0c0,4.433-5.003,8.047-10.595,8.929c-13.245,2.059-39.439-13.474-51.801-29.354
					c13.245,5,40.322-2.325,52.978-11.441c11.773-8.527,16.482-17.924,17.365-25.569c1.471-12.646-12.362-19.989-31.493-12.638
					c-12.361,4.999-27.077,15.882-42.382,36.172c16.188-26.759,47.974-70.279,79.172-98.214c37.967-33.817,60.042-27.347,25.9,8.529
					c-14.127,14.703-40.616,33.817-58.864,42.051c-5.592,2.353-2.943,5.587,1.177,3.823c19.425-8.528,45.326-26.171,60.924-40.875
					c46.209-44.403,7.652-77.926-43.559-30.876c-34.73,32.053-57.393,65.575-77.112,109.096c-6.77,8.233-11.773,14.997-17.954,20.29
					c-0.729,0.644-1.313,1.271-1.794,1.87c-16.997,14.565-43.678,34.228-60.258,34.464c-11.773,0.294-16.776-8.527-14.716-19.996
					c3.237-17.938,21.78-39.11,37.673-46.461c20.603-9.41,32.669,8.821,5.592,23.524c-10.302,5.293-22.663,8.233-27.667,8.233
					c-5.887,0-5.298,2.353-0.294,2.646c8.241,0.294,21.486-3.234,30.315-7.352c27.666-13.232,29.432-37.934-0.589-38.815
					c-32.669-1.177-71.814,26.759-71.52,61.752c0.294,15.88,12.95,24.407,30.315,24.407c28.878-0.262,54.708-22.28,75.827-41.644
					c3.032-2.521,5.961-5.293,8.888-8.217c-7.358,18.819-11.184,36.169-9.418,49.108c1.178,9.41,6.476,13.82,10.596,17.35
					c0.883,0.588,2.649,0,1.471-1.765c-6.181-7.352-4.415-29.166,4.121-50.338C382.503,312.05,410.169,329.935,439.013,323.465z
					 M404.283,262.112c33.847-30.288,47.091-3.234,25.606,13.232c-11.185,8.528-33.259,14.998-40.322,10.881l-1.472-0.882
					c-0.883-1.471-1.766-2.941-2.354-4.411C391.333,274.169,397.808,267.994,404.283,262.112z M592.137,227.791
					c13.539,1.471,7.946-14.997-5.886-10.88c-6.181,1.764-12.067,13.526-16.482,23.819c-13.539,20.29-36.202,47.932-52.095,62.341
					c-14.128,12.056-27.078,15.291-11.185-7.353c6.475-9.115,14.716-18.819,19.426-28.523
					c11.184-24.407-12.656-35.287-31.787-20.584c-11.184,8.527-26.194,26.171-37.967,35.875c-3.238,2.646-2.355,6.47,0.883,3.823
					c9.417-7.646,25.9-24.995,40.027-35.287c11.772-9.116,16.482-3.235,9.712,4.41c-9.418,10.881-25.9,29.7-30.02,41.757
					c-5.887,17.938,1.177,25.877,12.95,25.877c16.188,0,40.322-25.289,56.51-45.285c5.298-6.763,11.185-14.703,16.188-22.349
					c-14.127,27.348-28.844,54.989-47.091,79.984c-25.9,35.288-58.275,61.753-88.885,61.753c-22.074,0-41.205-14.997-45.326-37.051
					c-0.294-2.354-3.237-2.941-2.943,0.293c5.003,30.289,28.255,42.051,56.51,42.051c30.904,0,60.63-17.938,81.527-39.992
					c42.088-44.403,47.091-94.393,60.042-122.329C582.13,227.791,587.722,227.203,592.137,227.791z M763.227,184.976
					c6.181-10.586,5.887-18.82-8.534-18.82c-10.891,0.294-30.61,7.939-39.734,14.997c-2.061,2.059-1.178,3.235,1.472,2.059
					c1.766-0.588,3.826-1.765,5.887-2.646c10.301-5.587,6.181,6.175,3.825,10.586c-12.361,21.466-34.141,51.754-45.619,66.751
					c-5.499,7.384-11.699,14.759-17.667,21.029c-11.054,10.485-32.883,29.062-49.4,35.313
					c-53.566,19.996,14.716-71.162,20.309-78.514c12.655-15.88,40.911-43.521,49.445-57.342c6.182-10.586,5.887-18.82-8.534-18.82
					c-10.891,0.294-30.609,7.939-39.733,14.997c-2.061,2.059-1.178,3.234,1.471,2.059c1.767-0.588,3.826-1.765,5.887-2.646
					c10.301-5.587,6.181,6.175,3.826,10.586c-12.361,21.466-34.142,51.755-45.62,66.752c-9.418,12.645-20.896,25.289-29.727,32.347
					c-3.531,2.94-1.472,5.587,2.061,3.234c3.237-2.059,7.946-6.764,13.244-12.351c-9.712,19.408-17.659,46.756,7.947,49.99
					c21.82,2.983,47.764-19.285,64.54-35.778c1.849-1.75,3.877-3.806,6.02-6.042c0.504-0.515,0.997-1.019,1.473-1.507
					c-9.695,19.403-17.587,46.684,7.984,49.914c27.961,3.822,62.691-33.817,76.229-47.639c2.649-2.646,1.766-7.057-2.648-2.646
					c-7.947,8.234-34.73,32.641-54.155,39.993c-53.566,19.995,14.716-71.163,20.308-78.515
					C726.437,226.438,754.692,198.796,763.227,184.976z"/>
			</g>
		</g>
		<g>
			<g>
				<g>
					<linearGradient id="SVGID_1_" gradientUnits="userSpaceOnUse" x1="411.2588" y1="399.6357" x2="411.2588" y2="134.1638">
						<stop  offset="0" style="stop-color:#919191"/>
						<stop  offset="1" style="stop-color:#FFFFFF"/>
					</linearGradient>
					<path fill="url(#SVGID_1_)" d="M250.558,228.539c4.415,3.529,12.361,1.471,17.659-4.411c5.592-6.175,6.475-14.115,2.061-17.644
						c-4.415-3.529-12.362-1.47-17.66,4.705C247.025,217.365,246.143,225.011,250.558,228.539z M237.607,240.008
						c-1.177,0-3.237,2.059-1.472,2.94c2.354,0.882,3.532,2.94,3.532,5.882c-2.06,12.056-17.07,25.877-22.957,30.582
						c-1.472,1.47,0.589,4.705,2.06,3.528c3.238-2.646,10.007-7.939,15.6-14.997c-9.124,20.29-26.784,46.462-33.553,55.577
						c-26.488,36.758-66.811,70.574-94.477,70.574c-22.074,0-40.911-14.996-45.031-37.051c-0.294-2.354-3.532-2.94-2.943,0.294
						c5.003,30.288,28.255,42.05,56.51,42.05c30.904,0,67.178-22.392,87.126-45.306c32.279-37.078,53.265-79.669,47.673-103.782
						C247.32,241.184,241.14,239.714,237.607,240.008z M436.186,320.639c8.535-2.059,15.599-6.835,15.599-14.222
						c0-0.739-1.472-0.739-1.472,0c0,4.432-5.003,8.046-10.595,8.928c-13.245,2.059-39.439-13.473-51.801-29.353
						c13.245,4.999,40.322-2.326,52.978-11.441c11.773-8.528,16.482-17.925,17.365-25.57c1.471-12.645-12.362-19.989-31.493-12.638
						c-12.361,4.999-27.077,15.883-42.382,36.173c16.188-26.76,47.974-70.279,79.172-98.215
						c37.967-33.817,60.042-27.347,25.901,8.529c-14.128,14.703-40.617,33.817-58.865,42.051c-5.592,2.353-2.943,5.587,1.177,3.822
						c19.426-8.527,45.326-26.171,60.925-40.874c46.208-44.403,7.652-77.926-43.56-30.876
						c-34.73,32.053-57.393,65.575-77.112,109.097c-6.77,8.233-11.773,14.997-17.954,20.29c-0.729,0.643-1.313,1.27-1.794,1.869
						c-16.997,14.566-43.677,34.228-60.258,34.465c-11.773,0.294-16.776-8.528-14.716-19.996
						c3.237-17.938,21.78-39.11,37.673-46.462c20.603-9.41,32.669,8.821,5.592,23.524c-10.301,5.294-22.663,8.234-27.666,8.234
						c-5.886,0-5.298,2.353-0.294,2.646c8.241,0.294,21.486-3.235,30.315-7.353c27.666-13.232,29.432-37.934-0.589-38.815
						c-32.67-1.176-71.814,26.76-71.52,61.753c0.294,15.879,12.95,24.407,30.315,24.407c28.878-0.263,54.708-22.281,75.826-41.644
						c3.032-2.522,5.961-5.293,8.888-8.218c-7.358,18.82-11.184,36.17-9.418,49.108c1.178,9.41,6.476,13.821,10.596,17.35
						c0.883,0.588,2.649,0,1.471-1.764c-6.181-7.352-4.415-29.166,4.121-50.338C379.676,309.223,407.343,327.107,436.186,320.639z
						 M401.457,259.286c33.847-30.288,47.091-3.234,25.606,13.232c-11.184,8.528-33.258,14.997-40.322,10.88l-1.472-0.882
						c-0.883-1.47-1.766-2.94-2.354-4.41C388.506,271.343,394.981,265.167,401.457,259.286z M589.311,224.965
						c13.538,1.47,7.946-14.998-5.887-10.88c-6.181,1.764-12.067,13.527-16.482,23.819c-13.538,20.29-36.201,47.932-52.095,62.341
						c-14.127,12.057-27.077,15.291-11.184-7.352c6.475-9.116,14.716-18.82,19.425-28.523
						c11.184-24.407-12.656-35.287-31.787-20.584c-11.184,8.527-26.194,26.171-37.967,35.875c-3.238,2.646-2.355,6.469,0.883,3.822
						c9.418-7.646,25.9-24.995,40.027-35.287c11.773-9.116,16.482-3.234,9.713,4.411c-9.418,10.88-25.9,29.7-30.021,41.757
						c-5.887,17.938,1.177,25.877,12.949,25.877c16.188,0,40.322-25.289,56.51-45.285c5.298-6.764,11.185-14.703,16.188-22.349
						c-14.128,27.348-28.844,54.989-47.092,79.984c-25.899,35.287-58.275,61.752-88.885,61.752
						c-22.074,0-41.205-14.996-45.325-37.051c-0.295-2.353-3.238-2.94-2.944,0.294c5.003,30.288,28.255,42.05,56.51,42.05
						c30.904,0,60.63-17.938,81.527-39.991c42.088-44.403,47.092-94.394,60.042-122.329
						C579.303,224.965,584.896,224.376,589.311,224.965z M760.4,182.149c6.181-10.586,5.886-18.82-8.535-18.82
						c-10.89,0.294-30.609,7.939-39.733,14.997c-2.061,2.059-1.178,3.235,1.472,2.059c1.766-0.588,3.826-1.764,5.886-2.646
						c10.302-5.587,6.182,6.175,3.826,10.586c-12.361,21.466-34.142,51.755-45.62,66.752c-5.499,7.383-11.699,14.758-17.667,21.029
						c-11.053,10.485-32.883,29.062-49.399,35.313c-53.567,19.996,14.716-71.163,20.308-78.515
						c12.656-15.879,40.911-43.521,49.446-57.342c6.181-10.586,5.886-18.82-8.535-18.82c-10.89,0.294-30.609,7.939-39.733,14.997
						c-2.061,2.059-1.178,3.234,1.472,2.059c1.766-0.588,3.826-1.765,5.887-2.646c10.301-5.587,6.181,6.175,3.825,10.586
						c-12.361,21.466-34.142,51.754-45.619,66.751c-9.418,12.645-20.897,25.289-29.728,32.347c-3.531,2.94-1.471,5.588,2.062,3.235
						c3.237-2.06,7.946-6.764,13.244-12.352c-9.713,19.408-17.659,46.756,7.946,49.991c21.82,2.982,47.764-19.286,64.541-35.778
						c1.849-1.751,3.877-3.806,6.02-6.042c0.504-0.516,0.996-1.019,1.472-1.508c-9.695,19.404-17.587,46.684,7.985,49.914
						c27.961,3.822,62.69-33.817,76.229-47.638c2.648-2.646,1.766-7.058-2.649-2.646c-7.946,8.233-34.729,32.641-54.154,39.992
						c-53.567,19.995,14.716-71.163,20.308-78.515C723.61,223.611,751.865,195.97,760.4,182.149z"/>
				</g>
			</g>
			<defs>
				<filter id="Adobe_OpacityMaskFilter" filterUnits="userSpaceOnUse" x="58.294" y="134.165" width="705.929" height="265.471">
					
						<feColorMatrix  type="matrix" values="-1 0 0 0 1  0 -1 0 0 1  0 0 -1 0 1  0 0 0 1 0" color-interpolation-filters="sRGB" result="source"/>
				</filter>
			</defs>
			<mask maskUnits="userSpaceOnUse" x="58.294" y="134.165" width="705.929" height="265.471" id="SVGID_2_">
				<g filter="url(#Adobe_OpacityMaskFilter)">
					<image overflow="visible" width="711" height="270" xlink:href="9FD65EE42E17DACD.jpg"  transform="matrix(1 0 0 1 56 132)">
					</image>
				</g>
			</mask>
			<g opacity="0.75" mask="url(#SVGID_2_)">
				<g>
					<path fill="#FFFFFF" d="M250.558,228.539c4.415,3.529,12.361,1.471,17.659-4.411c5.592-6.175,6.475-14.115,2.061-17.644
						c-4.415-3.529-12.362-1.47-17.66,4.705C247.025,217.365,246.143,225.011,250.558,228.539z M237.607,240.008
						c-1.177,0-3.237,2.059-1.472,2.94c2.354,0.882,3.532,2.94,3.532,5.882c-2.06,12.056-17.07,25.877-22.957,30.582
						c-1.472,1.47,0.589,4.705,2.06,3.528c3.238-2.646,10.007-7.939,15.6-14.997c-9.124,20.29-26.784,46.462-33.553,55.577
						c-26.488,36.758-66.811,70.574-94.477,70.574c-22.074,0-40.911-14.996-45.031-37.051c-0.294-2.354-3.532-2.94-2.943,0.294
						c5.003,30.288,28.255,42.05,56.51,42.05c30.904,0,67.178-22.392,87.126-45.306c32.279-37.078,53.265-79.669,47.673-103.782
						C247.32,241.184,241.14,239.714,237.607,240.008z M436.186,320.639c8.535-2.059,15.599-6.835,15.599-14.222
						c0-0.739-1.472-0.739-1.472,0c0,4.432-5.003,8.046-10.595,8.928c-13.245,2.059-39.439-13.473-51.801-29.353
						c13.245,4.999,40.322-2.326,52.978-11.441c11.773-8.528,16.482-17.925,17.365-25.57c1.471-12.645-12.362-19.989-31.493-12.638
						c-12.361,4.999-27.077,15.883-42.382,36.173c16.188-26.76,47.974-70.279,79.172-98.215
						c37.967-33.817,60.042-27.347,25.901,8.529c-14.128,14.703-40.617,33.817-58.865,42.051c-5.592,2.353-2.943,5.587,1.177,3.822
						c19.426-8.527,45.326-26.171,60.925-40.874c46.208-44.403,7.652-77.926-43.56-30.876
						c-34.73,32.053-57.393,65.575-77.112,109.097c-6.77,8.233-11.773,14.997-17.954,20.29c-0.729,0.643-1.313,1.27-1.794,1.869
						c-16.997,14.566-43.677,34.228-60.258,34.465c-11.773,0.294-16.776-8.528-14.716-19.996
						c3.237-17.938,21.78-39.11,37.673-46.462c20.603-9.41,32.669,8.821,5.592,23.524c-10.301,5.294-22.663,8.234-27.666,8.234
						c-5.886,0-5.298,2.353-0.294,2.646c8.241,0.294,21.486-3.235,30.315-7.353c27.666-13.232,29.432-37.934-0.589-38.815
						c-32.67-1.176-71.814,26.76-71.52,61.753c0.294,15.879,12.95,24.407,30.315,24.407c28.878-0.263,54.708-22.281,75.826-41.644
						c3.032-2.522,5.961-5.293,8.888-8.218c-7.358,18.82-11.184,36.17-9.418,49.108c1.178,9.41,6.476,13.821,10.596,17.35
						c0.883,0.588,2.649,0,1.471-1.764c-6.181-7.352-4.415-29.166,4.121-50.338C379.676,309.223,407.343,327.107,436.186,320.639z
						 M401.457,259.286c33.847-30.288,47.091-3.234,25.606,13.232c-11.184,8.528-33.258,14.997-40.322,10.88l-1.472-0.882
						c-0.883-1.47-1.766-2.94-2.354-4.41C388.506,271.343,394.981,265.167,401.457,259.286z M589.311,224.965
						c13.538,1.47,7.946-14.998-5.887-10.88c-6.181,1.764-12.067,13.527-16.482,23.819c-13.538,20.29-36.201,47.932-52.095,62.341
						c-14.127,12.057-27.077,15.291-11.184-7.352c6.475-9.116,14.716-18.82,19.425-28.523
						c11.184-24.407-12.656-35.287-31.787-20.584c-11.184,8.527-26.194,26.171-37.967,35.875c-3.238,2.646-2.355,6.469,0.883,3.822
						c9.418-7.646,25.9-24.995,40.027-35.287c11.773-9.116,16.482-3.234,9.713,4.411c-9.418,10.88-25.9,29.7-30.021,41.757
						c-5.887,17.938,1.177,25.877,12.949,25.877c16.188,0,40.322-25.289,56.51-45.285c5.298-6.764,11.185-14.703,16.188-22.349
						c-14.128,27.348-28.844,54.989-47.092,79.984c-25.899,35.287-58.275,61.752-88.885,61.752
						c-22.074,0-41.205-14.996-45.325-37.051c-0.295-2.353-3.238-2.94-2.944,0.294c5.003,30.288,28.255,42.05,56.51,42.05
						c30.904,0,60.63-17.938,81.527-39.991c42.088-44.403,47.092-94.394,60.042-122.329
						C579.303,224.965,584.896,224.376,589.311,224.965z M760.4,182.149c6.181-10.586,5.886-18.82-8.535-18.82
						c-10.89,0.294-30.609,7.939-39.733,14.997c-2.061,2.059-1.178,3.235,1.472,2.059c1.766-0.588,3.826-1.764,5.886-2.646
						c10.302-5.587,6.182,6.175,3.826,10.586c-12.361,21.466-34.142,51.755-45.62,66.752c-5.499,7.383-11.699,14.758-17.667,21.029
						c-11.053,10.485-32.883,29.062-49.399,35.313c-53.567,19.996,14.716-71.163,20.308-78.515
						c12.656-15.879,40.911-43.521,49.446-57.342c6.181-10.586,5.886-18.82-8.535-18.82c-10.89,0.294-30.609,7.939-39.733,14.997
						c-2.061,2.059-1.178,3.234,1.472,2.059c1.766-0.588,3.826-1.765,5.887-2.646c10.301-5.587,6.181,6.175,3.825,10.586
						c-12.361,21.466-34.142,51.754-45.619,66.751c-9.418,12.645-20.897,25.289-29.728,32.347c-3.531,2.94-1.471,5.588,2.062,3.235
						c3.237-2.06,7.946-6.764,13.244-12.352c-9.713,19.408-17.659,46.756,7.946,49.991c21.82,2.982,47.764-19.286,64.541-35.778
						c1.849-1.751,3.877-3.806,6.02-6.042c0.504-0.516,0.996-1.019,1.472-1.508c-9.695,19.404-17.587,46.684,7.985,49.914
						c27.961,3.822,62.69-33.817,76.229-47.638c2.648-2.646,1.766-7.058-2.649-2.646c-7.946,8.233-34.729,32.641-54.154,39.992
						c-53.567,19.995,14.716-71.163,20.308-78.515C723.61,223.611,751.865,195.97,760.4,182.149z"/>
				</g>
			</g>
		</g>
		<g id="highlight">
			<g>
				<path fill="#FFFFFF" d="M661.764,281.891c-0.14,0.146-0.274,0.283-0.412,0.427c-4.196,9.143-7.592,19.445-7.32,28.013
					c0.295-9.433,4.534-20.601,9.204-29.947C662.76,280.872,662.268,281.375,661.764,281.891z"/>
				<path fill="#FFFFFF" d="M581.332,275.736c-4.196,9.142-7.591,19.445-7.318,28.012c0.295-9.459,4.558-20.665,9.243-30.028
					C582.605,274.407,581.964,275.08,581.332,275.736z"/>
				<path fill="#FFFFFF" d="M711.666,180.841c0.136-0.166,0.285-0.335,0.466-0.516c9.124-7.057,28.844-14.703,39.733-14.997
					c8.229,0,11.854,2.684,12.304,6.954c0.53-5.417-2.853-8.954-12.304-8.954c-10.89,0.294-30.609,7.939-39.733,14.997
					C710.719,179.738,710.69,180.734,711.666,180.841z"/>
				<path fill="#FFFFFF" d="M744.801,278.013c-7.946,8.233-34.729,32.641-54.154,39.992c-14.205,5.303-19.84,2.787-20.35-3.907
					c-0.462,8.146,4.812,11.707,20.35,5.907c19.425-7.352,46.208-31.759,54.154-39.992c2.147-2.146,3.452-2.196,3.929-1.386
					C749.477,276.421,748.172,274.645,744.801,278.013z"/>
				<path fill="#FFFFFF" d="M567.951,282.836c8.83-7.058,20.31-19.702,29.728-32.347c11.478-14.997,33.258-45.285,45.619-66.751
					c1.331-2.492,3.223-7.329,2.762-10.06c-0.325,2.695-1.716,6.101-2.762,8.06c-12.361,21.466-34.142,51.754-45.619,66.751
					c-9.418,12.645-20.897,25.289-29.728,32.347c-1.883,1.568-2.166,3.045-1.493,3.732
					C566.747,284.029,567.226,283.44,567.951,282.836z"/>
				<path fill="#FFFFFF" d="M631.648,174.255c0.137-0.165,0.286-0.335,0.466-0.515c9.124-7.058,28.844-14.703,39.733-14.997
					c8.229,0,11.854,2.684,12.305,6.954c0.529-5.417-2.854-8.954-12.305-8.954c-10.89,0.294-30.609,7.939-39.733,14.997
					C630.701,173.151,630.673,174.147,631.648,174.255z"/>
				<path fill="#FFFFFF" d="M723.315,190.324c1.33-2.492,3.223-7.329,2.762-10.059c-0.325,2.695-1.716,6.101-2.762,8.059
					c-12.361,21.466-34.142,51.755-45.62,66.752c-5.499,7.383-11.699,14.758-17.667,21.029
					c-11.053,10.485-32.883,29.062-49.399,35.313c-14.205,5.302-19.84,2.787-20.349-3.907c-0.462,8.146,4.812,11.707,20.349,5.907
					c16.517-6.252,38.347-24.828,49.399-35.313c5.968-6.271,12.168-13.646,17.667-21.029
					C689.174,242.079,710.954,211.791,723.315,190.324z"/>
			</g>
			<g>
				<path fill="#FFFFFF" d="M514.847,300.244c-8.886,7.584-17.301,11.671-18.37,8.028c-1.29,6.727,8.236,2.62,18.37-6.028
					c15.894-14.409,38.557-42.051,52.095-62.341c4.415-10.292,10.302-22.055,16.482-23.819c7.621-2.268,12.73,1.711,13.528,5.497
					c0.98-4.139-4.525-10.176-13.528-7.497c-6.181,1.764-12.067,13.527-16.482,23.819
					C553.403,258.193,530.74,285.835,514.847,300.244z"/>
				<path fill="#FFFFFF" d="M506.95,247.412c-0.327,1.483-1.302,3.283-2.993,5.194c-9.418,10.88-25.9,29.7-30.021,41.757
					c-1.59,4.845-2.228,8.954-2.091,12.381c0.132-2.994,0.799-6.446,2.091-10.381c4.12-12.057,20.603-30.877,30.021-41.757
					C506.515,251.718,507.432,249.083,506.95,247.412z"/>
				<path fill="#FFFFFF" d="M453.334,281.66c11.773-9.704,26.783-27.348,37.967-35.875c15.42-11.852,33.887-7.074,34.619,8.003
					c0.87-16.64-18.535-22.364-34.619-10.003c-11.184,8.527-26.194,26.171-37.967,35.875c-1.911,1.562-2.378,3.524-1.781,4.334
					C451.852,283.235,452.425,282.402,453.334,281.66z"/>
				<path fill="#FFFFFF" d="M375.458,358.222c0.549-1.602,2.582-0.866,2.824,1.07c4.12,22.055,23.251,37.051,45.325,37.051
					c30.609,0,62.985-26.465,88.885-61.752c18.248-24.995,32.964-52.637,47.092-79.984c-1.411,2.155-2.896,4.334-4.414,6.504
					c-12.802,24.541-26.319,49.074-42.678,71.48c-25.899,35.287-58.275,61.752-88.885,61.752c-22.074,0-41.205-14.996-45.325-37.051
					c-0.295-2.353-3.238-2.94-2.944,0.294C375.375,357.802,375.42,358.007,375.458,358.222z"/>
			</g>
			<g>
				<path fill="#FFFFFF" d="M320.568,279.74c-10.301,5.294-22.663,8.234-27.666,8.234c-4.696,0-5.261,1.495-2.761,2.249
					c0.676-0.152,1.583-0.249,2.761-0.249c5.003,0,17.365-2.94,27.666-8.234c11.909-6.466,16.244-13.614,15.613-18.794
					C335.626,267.878,331.01,274.07,320.568,279.74z"/>
				<path fill="#FFFFFF" d="M364.624,283.953c-5.54,14.862-8.75,28.675-8.607,39.965c0.25-11.731,3.885-25.968,9.827-41.166
					C365.438,283.158,365.03,283.554,364.624,283.953z"/>
				<path fill="#FFFFFF" d="M276.883,308.513c-0.39,9.535,4.716,16.421,15.136,16.161c16.581-0.237,43.261-19.898,60.258-34.465
					c0.48-0.6,1.064-1.227,1.794-1.869c6.181-5.293,11.184-12.057,17.954-20.29c19.72-43.521,42.382-77.044,77.112-109.097
					c34.491-31.688,63.238-26.826,64.218-6.708c0.864-21.762-28.612-28.003-64.218,4.708
					c-34.73,32.053-57.393,65.575-77.112,109.097c-6.77,8.233-11.773,14.997-17.954,20.29c-0.729,0.643-1.313,1.27-1.794,1.869
					c-16.997,14.566-43.677,34.228-60.258,34.465C282.343,322.915,277.25,316.994,276.883,308.513z"/>
				<path fill="#FFFFFF" d="M430.594,224.881c-3.229,1.358-3.702,3.006-2.738,3.819c0.477-0.601,1.353-1.237,2.738-1.819
					c18.248-8.234,44.737-27.348,58.865-42.051c12.647-13.291,17.574-22.541,16.842-27.207c-0.646,5.083-5.802,13.605-16.842,25.207
					C475.331,197.533,448.842,216.647,430.594,224.881z"/>
				<path fill="#FFFFFF" d="M427.062,274.519c7.566-5.8,10.82-12.909,10.389-18.367c-0.397,5.121-3.717,11.254-10.389,16.367
					c-11.184,8.528-33.258,14.997-40.322,10.88l-1.472-0.882c-0.623-1.036-1.24-2.073-1.759-3.109
					c-0.197,0.233-0.4,0.463-0.595,0.699c0.589,1.47,1.472,2.94,2.354,4.41l1.472,0.882
					C393.804,289.516,415.878,283.047,427.062,274.519z"/>
				<path fill="#FFFFFF" d="M450.313,306c0,5-5.003,8.255-10.595,9.137c-12.496,1.942-36.513-11.67-49.571-26.562
					c-0.777-0.197-1.527-0.369-2.23-0.634c12.362,15.879,38.556,31.438,51.801,29.379c5.592-0.883,10.595-4.483,10.595-8.916
					c0-0.603,0.971-0.906,1.331-0.524c0.083-0.545,0.141-0.879,0.141-1.879H450.313z"/>
				<path fill="#FFFFFF" d="M322.334,246.453c14.172,0.417,21.252,6.143,21.876,13.463c0.573-8.252-6.438-15.009-21.876-15.463
					c-32.67-1.176-71.814,26.76-71.52,61.753c0.002,0.12,0.012,0.235,0.015,0.354C251.75,272.342,290.178,245.296,322.334,246.453z"
					/>
				<path fill="#FFFFFF" d="M426.768,236.343c-10.773,4.357-23.336,13.189-36.518,28.818c-2.124,3.287-4.092,6.426-5.864,9.354
					c15.305-20.29,30.021-31.174,42.382-36.173c17.671-6.791,30.812-1.038,31.557,9.844
					C459.133,236.034,445.493,229.147,426.768,236.343z"/>
				<path fill="#FFFFFF" d="M364.828,331.673c-0.115,6.95,1.041,12.514,3.552,15.626c0.51-0.253,0.769-0.87,0.112-1.853
					C366.149,342.659,364.951,337.792,364.828,331.673z"/>
			</g>
			<g>
				<path fill="#FFFFFF" d="M236.002,242.865c0.458-0.489,1.109-0.857,1.605-0.857c3.532-0.294,9.713,1.176,12.067,10.292
					c0.521,2.247,0.81,4.655,0.882,7.203c0.05-3.293-0.227-6.379-0.882-9.203c-2.354-9.116-8.535-10.586-12.067-10.292
					C236.464,240.008,234.5,241.945,236.002,242.865z"/>
				<path fill="#FFFFFF" d="M58.45,357.785c0.575-1.344,2.627-0.595,2.859,1.259c4.12,22.055,22.957,37.051,45.031,37.051
					c27.667,0,67.989-33.816,94.477-70.574c6.77-9.115,24.429-35.287,33.553-55.577c-0.702,0.886-1.422,1.743-2.151,2.571
					c-9.519,19.483-25.13,42.562-31.402,51.006c-26.488,36.758-66.811,70.574-94.477,70.574c-22.074,0-40.911-14.996-45.031-37.051
					c-0.294-2.354-3.532-2.94-2.943,0.294C58.391,357.489,58.423,357.634,58.45,357.785z"/>
				<path fill="#FFFFFF" d="M216.71,281.412c5.887-4.705,20.897-18.526,22.957-30.582c0-0.505-0.047-0.974-0.117-1.425
					c-2.426,11.918-17.047,25.376-22.84,30.007c-0.628,0.628-0.61,1.576-0.271,2.367
					C216.513,281.649,216.598,281.524,216.71,281.412z"/>
			</g>
			<path fill="#FFFFFF" d="M252.618,213.19c5.298-6.175,13.245-8.234,17.66-4.705c1.633,1.306,2.537,3.217,2.75,5.417
				c0.248-3.03-0.639-5.73-2.75-7.417c-4.415-3.529-12.362-1.47-17.66,4.705c-3.528,3.896-5.176,8.374-4.808,12.038
				C248.088,220.007,249.709,216.401,252.618,213.19z"/>
		</g>
	</g>
	
		<text transform="matrix(1 0 0 1 831.1709 328.3955)" fill="#F2F2F2" font-family="'LucidaSans-TypewriterOblique'" font-size="220">hub</text>
</g>
<g id="logo-bg-light" display="none">
	<g id="test-tube_1_" display="inline">
		<path id="shadow_1_" opacity="0.1" d="M802.411,80.363c-0.151,0.607-0.155,1.259-0.027,1.948c0,0,2.065,13.708-0.279,19.809
			L702.43,361.291l0.008,0.003c-7.113,19.036,2.419,40.289,21.429,47.601c19.009,7.311,40.325-2.079,47.801-20.976l0.009,0.004
			l99.675-259.172c1.949-5.07,13.064-14.892,13.064-14.892c0.558-0.425,0.99-0.913,1.285-1.464l0.049-0.101
			c0.054-0.108,0.116-0.212,0.159-0.325c2.57-6.683-14.008-19.279-37.028-28.132c-23.021-8.854-43.767-10.613-46.337-3.93
			c-0.044,0.113-0.068,0.231-0.101,0.348L802.411,80.363z"/>
		
			<linearGradient id="tube_4_" gradientUnits="userSpaceOnUse" x1="724.5791" y1="335.6963" x2="787.7346" y2="398.8518" gradientTransform="matrix(0.9138 -0.4062 0.4062 0.9138 -56.6658 215.7002)">
			<stop  offset="0" style="stop-color:#919191"/>
			<stop  offset="1" style="stop-color:#FFFFFF"/>
		</linearGradient>
		<path id="tube_1_" fill="url(#tube_4_)" d="M799.53,78.16c-0.152,0.607-0.156,1.259-0.027,1.948c0,0,2.065,13.708-0.28,19.809
			l-99.675,259.171l0.009,0.003c-7.113,19.036,2.419,40.289,21.429,47.601c19.008,7.311,40.325-2.079,47.801-20.976l0.009,0.004
			l99.675-259.172c1.948-5.07,13.064-14.892,13.064-14.892c0.558-0.425,0.99-0.912,1.285-1.464l0.048-0.101
			c0.054-0.108,0.116-0.212,0.159-0.325c2.57-6.683-14.008-19.279-37.027-28.132c-23.021-8.854-43.767-10.613-46.337-3.93
			c-0.044,0.113-0.068,0.231-0.101,0.348L799.53,78.16z"/>
		
			<linearGradient id="liquid_3_" gradientUnits="userSpaceOnUse" x1="700.832" y1="383.875" x2="739.0662" y2="422.1092" gradientTransform="matrix(0.9138 -0.4062 0.4062 0.9138 -56.6658 215.7002)">
			<stop  offset="0" style="stop-color:#990000"/>
			<stop  offset="1" style="stop-color:#E80000"/>
		</linearGradient>
		<path id="liquid_1_" fill="url(#liquid_3_)" d="M830.797,195.407l-71.88,186.9l0.047,0.018
			c-5.302,13.396-20.729,20.365-34.416,15.102s-21.094-21.015-16.053-34.512l0,0l45.93-119.426c0,0,5.736-9.253,16.999-15.836
			c11.263-6.583,20.551-5.193,33.058-10.752C816.987,211.341,830.797,195.407,830.797,195.407z"/>
		
			<ellipse id="top_1_" transform="matrix(0.9334 0.359 -0.359 0.9334 89.9472 -295.6295)" fill="#333333" cx="841.085" cy="94.407" rx="27.717" ry="7.29"/>
		<path id="side-reflection_1_" opacity="0.3" fill="#FFFFFF" d="M799.503,80.107c0,0,2.035,13.787-0.28,19.809l-99.675,259.171
			l0.009,0.003c-7.113,19.036,2.419,40.289,21.429,47.601c3.299,1.269,6.666,2.022,10.02,2.324
			c-12.813-9.64-18.312-26.88-12.433-42.611l-0.009-0.003l97.697-254.031C816.261,112.371,802.962,99.884,799.503,80.107z"/>
		<g id="bubbles_1_">
			<circle opacity="0.5" fill="#FFFFFF" cx="767.412" cy="247.294" r="2.888"/>
			<circle opacity="0.5" fill="#FFFFFF" cx="786.344" cy="268.235" r="4.354"/>
			<circle opacity="0.5" fill="#FFFFFF" cx="757.443" cy="293.138" r="8.167"/>
			<circle opacity="0.5" fill="#FFFFFF" cx="744.219" cy="308.241" r="4.354"/>
			<circle opacity="0.5" fill="#FFFFFF" cx="761.563" cy="340.542" r="2.888"/>
		</g>
	</g>
	<g id="jekyll-text_1_" display="inline">
		<g opacity="0.1">
			<g>
				<path d="M253.384,231.366c4.415,3.528,12.361,1.47,17.659-4.411c5.592-6.175,6.475-14.115,2.061-17.644
					c-4.416-3.529-12.362-1.47-17.66,4.705C249.852,220.191,248.969,227.837,253.384,231.366z M240.434,242.835
					c-1.177,0-3.237,2.058-1.472,2.94c2.354,0.882,3.532,2.939,3.532,5.881c-2.06,12.057-17.07,25.877-22.957,30.582
					c-1.472,1.471,0.589,4.705,2.06,3.529c3.238-2.646,10.007-7.94,15.6-14.998c-9.124,20.291-26.784,46.462-33.553,55.578
					c-26.488,36.757-66.811,70.574-94.477,70.574c-22.074,0-40.911-14.997-45.031-37.052c-0.294-2.353-3.532-2.94-2.943,0.294
					c5.003,30.289,28.255,42.051,56.51,42.051c30.904,0,67.178-22.392,87.126-45.306c32.279-37.078,53.265-79.67,47.673-103.782
					C250.147,244.011,243.966,242.54,240.434,242.835z M439.013,323.465c8.535-2.059,15.599-6.835,15.599-14.222
					c0-0.738-1.472-0.738-1.472,0c0,4.433-5.003,8.047-10.595,8.929c-13.245,2.059-39.439-13.474-51.801-29.354
					c13.245,5,40.322-2.325,52.978-11.441c11.773-8.527,16.482-17.924,17.365-25.569c1.471-12.646-12.362-19.989-31.493-12.638
					c-12.361,4.999-27.077,15.882-42.382,36.172c16.188-26.759,47.974-70.279,79.172-98.214c37.967-33.817,60.042-27.347,25.9,8.529
					c-14.127,14.703-40.616,33.817-58.864,42.051c-5.592,2.353-2.943,5.587,1.177,3.823c19.425-8.528,45.326-26.171,60.924-40.875
					c46.209-44.403,7.652-77.926-43.559-30.876c-34.73,32.053-57.393,65.575-77.112,109.096c-6.77,8.233-11.773,14.997-17.954,20.29
					c-0.729,0.644-1.313,1.271-1.794,1.87c-16.997,14.565-43.678,34.228-60.258,34.464c-11.773,0.294-16.776-8.527-14.716-19.996
					c3.237-17.938,21.78-39.11,37.673-46.461c20.603-9.41,32.669,8.821,5.592,23.524c-10.302,5.293-22.663,8.233-27.667,8.233
					c-5.887,0-5.298,2.353-0.294,2.646c8.241,0.294,21.486-3.234,30.315-7.352c27.666-13.232,29.432-37.934-0.589-38.815
					c-32.669-1.177-71.814,26.759-71.52,61.752c0.294,15.88,12.95,24.407,30.315,24.407c28.878-0.262,54.708-22.28,75.827-41.644
					c3.032-2.521,5.961-5.293,8.888-8.217c-7.358,18.819-11.184,36.169-9.418,49.108c1.178,9.41,6.476,13.82,10.596,17.35
					c0.883,0.588,2.649,0,1.471-1.765c-6.181-7.352-4.415-29.166,4.121-50.338C382.503,312.05,410.169,329.935,439.013,323.465z
					 M404.283,262.112c33.847-30.288,47.091-3.234,25.606,13.232c-11.185,8.528-33.259,14.998-40.322,10.881l-1.472-0.882
					c-0.883-1.471-1.766-2.941-2.354-4.411C391.333,274.169,397.808,267.994,404.283,262.112z M592.137,227.791
					c13.539,1.471,7.946-14.997-5.886-10.88c-6.181,1.764-12.067,13.526-16.482,23.819c-13.539,20.29-36.202,47.932-52.095,62.341
					c-14.128,12.056-27.078,15.291-11.185-7.353c6.475-9.115,14.716-18.819,19.426-28.523
					c11.184-24.407-12.656-35.287-31.787-20.584c-11.184,8.527-26.194,26.171-37.967,35.875c-3.238,2.646-2.355,6.47,0.883,3.823
					c9.417-7.646,25.9-24.995,40.027-35.287c11.772-9.116,16.482-3.235,9.712,4.41c-9.418,10.881-25.9,29.7-30.02,41.757
					c-5.887,17.938,1.177,25.877,12.95,25.877c16.188,0,40.322-25.289,56.51-45.285c5.298-6.763,11.185-14.703,16.188-22.349
					c-14.127,27.348-28.844,54.989-47.091,79.984c-25.9,35.288-58.275,61.753-88.885,61.753c-22.074,0-41.205-14.997-45.326-37.051
					c-0.294-2.354-3.237-2.941-2.943,0.293c5.003,30.289,28.255,42.051,56.51,42.051c30.904,0,60.63-17.938,81.527-39.992
					c42.088-44.403,47.091-94.393,60.042-122.329C582.13,227.791,587.722,227.203,592.137,227.791z M763.227,184.976
					c6.181-10.586,5.887-18.82-8.534-18.82c-10.891,0.294-30.61,7.939-39.734,14.997c-2.061,2.059-1.178,3.235,1.472,2.059
					c1.766-0.588,3.826-1.765,5.887-2.646c10.301-5.587,6.181,6.175,3.825,10.586c-12.361,21.466-34.141,51.754-45.619,66.751
					c-5.499,7.384-11.699,14.759-17.667,21.029c-11.054,10.485-32.883,29.062-49.4,35.313
					c-53.566,19.996,14.716-71.162,20.309-78.514c12.655-15.88,40.911-43.521,49.445-57.342c6.182-10.586,5.887-18.82-8.534-18.82
					c-10.891,0.294-30.609,7.939-39.733,14.997c-2.061,2.059-1.178,3.234,1.471,2.059c1.767-0.588,3.826-1.765,5.887-2.646
					c10.301-5.587,6.181,6.175,3.826,10.586c-12.361,21.466-34.142,51.755-45.62,66.752c-9.418,12.645-20.896,25.289-29.727,32.347
					c-3.531,2.94-1.472,5.587,2.061,3.234c3.237-2.059,7.946-6.764,13.244-12.351c-9.712,19.408-17.659,46.756,7.947,49.99
					c21.82,2.983,47.764-19.285,64.54-35.778c1.849-1.75,3.877-3.806,6.02-6.042c0.504-0.515,0.997-1.019,1.473-1.507
					c-9.695,19.403-17.587,46.684,7.984,49.914c27.961,3.822,62.691-33.817,76.229-47.639c2.649-2.646,1.766-7.057-2.648-2.646
					c-7.947,8.234-34.73,32.641-54.155,39.993c-53.566,19.995,14.716-71.163,20.308-78.515
					C726.437,226.438,754.692,198.796,763.227,184.976z"/>
			</g>
		</g>
		<g>
			<g>
				<g>
					<linearGradient id="SVGID_3_" gradientUnits="userSpaceOnUse" x1="411.2588" y1="399.6357" x2="411.2588" y2="134.1638">
						<stop  offset="0" style="stop-color:#1A1A1A"/>
						<stop  offset="0.4026" style="stop-color:#4A4A4C"/>
						<stop  offset="1" style="stop-color:#333333"/>
					</linearGradient>
					<path fill="url(#SVGID_3_)" d="M250.558,228.539c4.415,3.529,12.361,1.471,17.659-4.411c5.592-6.175,6.475-14.115,2.061-17.644
						c-4.415-3.529-12.362-1.47-17.66,4.705C247.025,217.365,246.143,225.011,250.558,228.539z M237.607,240.008
						c-1.177,0-3.237,2.059-1.472,2.94c2.354,0.882,3.532,2.94,3.532,5.882c-2.06,12.056-17.07,25.877-22.957,30.582
						c-1.472,1.47,0.589,4.705,2.06,3.528c3.238-2.646,10.007-7.939,15.6-14.997c-9.124,20.29-26.784,46.462-33.553,55.577
						c-26.488,36.758-66.811,70.574-94.477,70.574c-22.074,0-40.911-14.996-45.031-37.051c-0.294-2.354-3.532-2.94-2.943,0.294
						c5.003,30.288,28.255,42.05,56.51,42.05c30.904,0,67.178-22.392,87.126-45.306c32.279-37.078,53.265-79.669,47.673-103.782
						C247.32,241.184,241.14,239.714,237.607,240.008z M436.186,320.639c8.535-2.059,15.599-6.835,15.599-14.222
						c0-0.739-1.472-0.739-1.472,0c0,4.432-5.003,8.046-10.595,8.928c-13.245,2.059-39.439-13.473-51.801-29.353
						c13.245,4.999,40.322-2.326,52.978-11.441c11.773-8.528,16.482-17.925,17.365-25.57c1.471-12.645-12.362-19.989-31.493-12.638
						c-12.361,4.999-27.077,15.883-42.382,36.173c16.188-26.76,47.974-70.279,79.172-98.215
						c37.967-33.817,60.042-27.347,25.901,8.529c-14.128,14.703-40.617,33.817-58.865,42.051c-5.592,2.353-2.943,5.587,1.177,3.822
						c19.426-8.527,45.326-26.171,60.925-40.874c46.208-44.403,7.652-77.926-43.56-30.876
						c-34.73,32.053-57.393,65.575-77.112,109.097c-6.77,8.233-11.773,14.997-17.954,20.29c-0.729,0.643-1.313,1.27-1.794,1.869
						c-16.997,14.566-43.677,34.228-60.258,34.465c-11.773,0.294-16.776-8.528-14.716-19.996
						c3.237-17.938,21.78-39.11,37.673-46.462c20.603-9.41,32.669,8.821,5.592,23.524c-10.301,5.294-22.663,8.234-27.666,8.234
						c-5.886,0-5.298,2.353-0.294,2.646c8.241,0.294,21.486-3.235,30.315-7.353c27.666-13.232,29.432-37.934-0.589-38.815
						c-32.67-1.176-71.814,26.76-71.52,61.753c0.294,15.879,12.95,24.407,30.315,24.407c28.878-0.263,54.708-22.281,75.826-41.644
						c3.032-2.522,5.961-5.293,8.888-8.218c-7.358,18.82-11.184,36.17-9.418,49.108c1.178,9.41,6.476,13.821,10.596,17.35
						c0.883,0.588,2.649,0,1.471-1.764c-6.181-7.352-4.415-29.166,4.121-50.338C379.676,309.223,407.343,327.107,436.186,320.639z
						 M401.457,259.286c33.847-30.288,47.091-3.234,25.606,13.232c-11.184,8.528-33.258,14.997-40.322,10.88l-1.472-0.882
						c-0.883-1.47-1.766-2.94-2.354-4.41C388.506,271.343,394.981,265.167,401.457,259.286z M589.311,224.965
						c13.538,1.47,7.946-14.998-5.887-10.88c-6.181,1.764-12.067,13.527-16.482,23.819c-13.538,20.29-36.201,47.932-52.095,62.341
						c-14.127,12.057-27.077,15.291-11.184-7.352c6.475-9.116,14.716-18.82,19.425-28.523
						c11.184-24.407-12.656-35.287-31.787-20.584c-11.184,8.527-26.194,26.171-37.967,35.875c-3.238,2.646-2.355,6.469,0.883,3.822
						c9.418-7.646,25.9-24.995,40.027-35.287c11.773-9.116,16.482-3.234,9.713,4.411c-9.418,10.88-25.9,29.7-30.021,41.757
						c-5.887,17.938,1.177,25.877,12.949,25.877c16.188,0,40.322-25.289,56.51-45.285c5.298-6.764,11.185-14.703,16.188-22.349
						c-14.128,27.348-28.844,54.989-47.092,79.984c-25.899,35.287-58.275,61.752-88.885,61.752
						c-22.074,0-41.205-14.996-45.325-37.051c-0.295-2.353-3.238-2.94-2.944,0.294c5.003,30.288,28.255,42.05,56.51,42.05
						c30.904,0,60.63-17.938,81.527-39.991c42.088-44.403,47.092-94.394,60.042-122.329
						C579.303,224.965,584.896,224.376,589.311,224.965z M760.4,182.149c6.181-10.586,5.886-18.82-8.535-18.82
						c-10.89,0.294-30.609,7.939-39.733,14.997c-2.061,2.059-1.178,3.235,1.472,2.059c1.766-0.588,3.826-1.764,5.886-2.646
						c10.302-5.587,6.182,6.175,3.826,10.586c-12.361,21.466-34.142,51.755-45.62,66.752c-5.499,7.383-11.699,14.758-17.667,21.029
						c-11.053,10.485-32.883,29.062-49.399,35.313c-53.567,19.996,14.716-71.163,20.308-78.515
						c12.656-15.879,40.911-43.521,49.446-57.342c6.181-10.586,5.886-18.82-8.535-18.82c-10.89,0.294-30.609,7.939-39.733,14.997
						c-2.061,2.059-1.178,3.234,1.472,2.059c1.766-0.588,3.826-1.765,5.887-2.646c10.301-5.587,6.181,6.175,3.825,10.586
						c-12.361,21.466-34.142,51.754-45.619,66.751c-9.418,12.645-20.897,25.289-29.728,32.347c-3.531,2.94-1.471,5.588,2.062,3.235
						c3.237-2.06,7.946-6.764,13.244-12.352c-9.713,19.408-17.659,46.756,7.946,49.991c21.82,2.982,47.764-19.286,64.541-35.778
						c1.849-1.751,3.877-3.806,6.02-6.042c0.504-0.516,0.996-1.019,1.472-1.508c-9.695,19.404-17.587,46.684,7.985,49.914
						c27.961,3.822,62.69-33.817,76.229-47.638c2.648-2.646,1.766-7.058-2.649-2.646c-7.946,8.233-34.729,32.641-54.154,39.992
						c-53.567,19.995,14.716-71.163,20.308-78.515C723.61,223.611,751.865,195.97,760.4,182.149z"/>
				</g>
			</g>
			<defs>
				
					<filter id="Adobe_OpacityMaskFilter_1_" filterUnits="userSpaceOnUse" x="58.294" y="134.165" width="705.929" height="265.471">
					
						<feColorMatrix  type="matrix" values="-1 0 0 0 1  0 -1 0 0 1  0 0 -1 0 1  0 0 0 1 0" color-interpolation-filters="sRGB" result="source"/>
				</filter>
			</defs>
			<mask maskUnits="userSpaceOnUse" x="58.294" y="134.165" width="705.929" height="265.471" id="SVGID_4_">
				<g filter="url(#Adobe_OpacityMaskFilter_1_)">
					<image overflow="visible" width="711" height="270" xlink:href="9FD65EE42E17DACE.jpg"  transform="matrix(1 0 0 1 56 132)">
					</image>
				</g>
			</mask>
			<g opacity="0.75" mask="url(#SVGID_4_)">
				<g>
					<path fill="#FFFFFF" d="M250.558,228.539c4.415,3.529,12.361,1.471,17.659-4.411c5.592-6.175,6.475-14.115,2.061-17.644
						c-4.415-3.529-12.362-1.47-17.66,4.705C247.025,217.365,246.143,225.011,250.558,228.539z M237.607,240.008
						c-1.177,0-3.237,2.059-1.472,2.94c2.354,0.882,3.532,2.94,3.532,5.882c-2.06,12.056-17.07,25.877-22.957,30.582
						c-1.472,1.47,0.589,4.705,2.06,3.528c3.238-2.646,10.007-7.939,15.6-14.997c-9.124,20.29-26.784,46.462-33.553,55.577
						c-26.488,36.758-66.811,70.574-94.477,70.574c-22.074,0-40.911-14.996-45.031-37.051c-0.294-2.354-3.532-2.94-2.943,0.294
						c5.003,30.288,28.255,42.05,56.51,42.05c30.904,0,67.178-22.392,87.126-45.306c32.279-37.078,53.265-79.669,47.673-103.782
						C247.32,241.184,241.14,239.714,237.607,240.008z M436.186,320.639c8.535-2.059,15.599-6.835,15.599-14.222
						c0-0.739-1.472-0.739-1.472,0c0,4.432-5.003,8.046-10.595,8.928c-13.245,2.059-39.439-13.473-51.801-29.353
						c13.245,4.999,40.322-2.326,52.978-11.441c11.773-8.528,16.482-17.925,17.365-25.57c1.471-12.645-12.362-19.989-31.493-12.638
						c-12.361,4.999-27.077,15.883-42.382,36.173c16.188-26.76,47.974-70.279,79.172-98.215
						c37.967-33.817,60.042-27.347,25.901,8.529c-14.128,14.703-40.617,33.817-58.865,42.051c-5.592,2.353-2.943,5.587,1.177,3.822
						c19.426-8.527,45.326-26.171,60.925-40.874c46.208-44.403,7.652-77.926-43.56-30.876
						c-34.73,32.053-57.393,65.575-77.112,109.097c-6.77,8.233-11.773,14.997-17.954,20.29c-0.729,0.643-1.313,1.27-1.794,1.869
						c-16.997,14.566-43.677,34.228-60.258,34.465c-11.773,0.294-16.776-8.528-14.716-19.996
						c3.237-17.938,21.78-39.11,37.673-46.462c20.603-9.41,32.669,8.821,5.592,23.524c-10.301,5.294-22.663,8.234-27.666,8.234
						c-5.886,0-5.298,2.353-0.294,2.646c8.241,0.294,21.486-3.235,30.315-7.353c27.666-13.232,29.432-37.934-0.589-38.815
						c-32.67-1.176-71.814,26.76-71.52,61.753c0.294,15.879,12.95,24.407,30.315,24.407c28.878-0.263,54.708-22.281,75.826-41.644
						c3.032-2.522,5.961-5.293,8.888-8.218c-7.358,18.82-11.184,36.17-9.418,49.108c1.178,9.41,6.476,13.821,10.596,17.35
						c0.883,0.588,2.649,0,1.471-1.764c-6.181-7.352-4.415-29.166,4.121-50.338C379.676,309.223,407.343,327.107,436.186,320.639z
						 M401.457,259.286c33.847-30.288,47.091-3.234,25.606,13.232c-11.184,8.528-33.258,14.997-40.322,10.88l-1.472-0.882
						c-0.883-1.47-1.766-2.94-2.354-4.41C388.506,271.343,394.981,265.167,401.457,259.286z M589.311,224.965
						c13.538,1.47,7.946-14.998-5.887-10.88c-6.181,1.764-12.067,13.527-16.482,23.819c-13.538,20.29-36.201,47.932-52.095,62.341
						c-14.127,12.057-27.077,15.291-11.184-7.352c6.475-9.116,14.716-18.82,19.425-28.523
						c11.184-24.407-12.656-35.287-31.787-20.584c-11.184,8.527-26.194,26.171-37.967,35.875c-3.238,2.646-2.355,6.469,0.883,3.822
						c9.418-7.646,25.9-24.995,40.027-35.287c11.773-9.116,16.482-3.234,9.713,4.411c-9.418,10.88-25.9,29.7-30.021,41.757
						c-5.887,17.938,1.177,25.877,12.949,25.877c16.188,0,40.322-25.289,56.51-45.285c5.298-6.764,11.185-14.703,16.188-22.349
						c-14.128,27.348-28.844,54.989-47.092,79.984c-25.899,35.287-58.275,61.752-88.885,61.752
						c-22.074,0-41.205-14.996-45.325-37.051c-0.295-2.353-3.238-2.94-2.944,0.294c5.003,30.288,28.255,42.05,56.51,42.05
						c30.904,0,60.63-17.938,81.527-39.991c42.088-44.403,47.092-94.394,60.042-122.329
						C579.303,224.965,584.896,224.376,589.311,224.965z M760.4,182.149c6.181-10.586,5.886-18.82-8.535-18.82
						c-10.89,0.294-30.609,7.939-39.733,14.997c-2.061,2.059-1.178,3.235,1.472,2.059c1.766-0.588,3.826-1.764,5.886-2.646
						c10.302-5.587,6.182,6.175,3.826,10.586c-12.361,21.466-34.142,51.755-45.62,66.752c-5.499,7.383-11.699,14.758-17.667,21.029
						c-11.053,10.485-32.883,29.062-49.399,35.313c-53.567,19.996,14.716-71.163,20.308-78.515
						c12.656-15.879,40.911-43.521,49.446-57.342c6.181-10.586,5.886-18.82-8.535-18.82c-10.89,0.294-30.609,7.939-39.733,14.997
						c-2.061,2.059-1.178,3.234,1.472,2.059c1.766-0.588,3.826-1.765,5.887-2.646c10.301-5.587,6.181,6.175,3.825,10.586
						c-12.361,21.466-34.142,51.754-45.619,66.751c-9.418,12.645-20.897,25.289-29.728,32.347c-3.531,2.94-1.471,5.588,2.062,3.235
						c3.237-2.06,7.946-6.764,13.244-12.352c-9.713,19.408-17.659,46.756,7.946,49.991c21.82,2.982,47.764-19.286,64.541-35.778
						c1.849-1.751,3.877-3.806,6.02-6.042c0.504-0.516,0.996-1.019,1.472-1.508c-9.695,19.404-17.587,46.684,7.985,49.914
						c27.961,3.822,62.69-33.817,76.229-47.638c2.648-2.646,1.766-7.058-2.649-2.646c-7.946,8.233-34.729,32.641-54.154,39.992
						c-53.567,19.995,14.716-71.163,20.308-78.515C723.61,223.611,751.865,195.97,760.4,182.149z"/>
				</g>
			</g>
		</g>
		<g id="highlight_1_" display="none" opacity="0.3">
			<g display="inline">
				<path fill="#FFFFFF" d="M661.764,281.891c-0.14,0.146-0.274,0.283-0.412,0.427c-4.196,9.143-7.592,19.445-7.32,28.013
					c0.295-9.433,4.534-20.601,9.204-29.947C662.76,280.872,662.268,281.375,661.764,281.891z"/>
				<path fill="#FFFFFF" d="M581.332,275.736c-4.196,9.142-7.591,19.445-7.318,28.012c0.295-9.459,4.558-20.665,9.243-30.028
					C582.605,274.407,581.964,275.08,581.332,275.736z"/>
				<path fill="#FFFFFF" d="M711.666,180.841c0.136-0.166,0.285-0.335,0.466-0.516c9.124-7.057,28.844-14.703,39.733-14.997
					c8.229,0,11.854,2.684,12.304,6.954c0.53-5.417-2.853-8.954-12.304-8.954c-10.89,0.294-30.609,7.939-39.733,14.997
					C710.719,179.738,710.69,180.734,711.666,180.841z"/>
				<path fill="#FFFFFF" d="M744.801,278.013c-7.946,8.233-34.729,32.641-54.154,39.992c-14.205,5.303-19.84,2.787-20.35-3.907
					c-0.462,8.146,4.812,11.707,20.35,5.907c19.425-7.352,46.208-31.759,54.154-39.992c2.147-2.146,3.452-2.196,3.929-1.386
					C749.477,276.421,748.172,274.645,744.801,278.013z"/>
				<path fill="#FFFFFF" d="M567.951,282.836c8.83-7.058,20.31-19.702,29.728-32.347c11.478-14.997,33.258-45.285,45.619-66.751
					c1.331-2.492,3.223-7.329,2.762-10.06c-0.325,2.695-1.716,6.101-2.762,8.06c-12.361,21.466-34.142,51.754-45.619,66.751
					c-9.418,12.645-20.897,25.289-29.728,32.347c-1.883,1.568-2.166,3.045-1.493,3.732
					C566.747,284.029,567.226,283.44,567.951,282.836z"/>
				<path fill="#FFFFFF" d="M631.648,174.255c0.137-0.165,0.286-0.335,0.466-0.515c9.124-7.058,28.844-14.703,39.733-14.997
					c8.229,0,11.854,2.684,12.305,6.954c0.529-5.417-2.854-8.954-12.305-8.954c-10.89,0.294-30.609,7.939-39.733,14.997
					C630.701,173.151,630.673,174.147,631.648,174.255z"/>
				<path fill="#FFFFFF" d="M723.315,190.324c1.33-2.492,3.223-7.329,2.762-10.059c-0.325,2.695-1.716,6.101-2.762,8.059
					c-12.361,21.466-34.142,51.755-45.62,66.752c-5.499,7.383-11.699,14.758-17.667,21.029
					c-11.053,10.485-32.883,29.062-49.399,35.313c-14.205,5.302-19.84,2.787-20.349-3.907c-0.462,8.146,4.812,11.707,20.349,5.907
					c16.517-6.252,38.347-24.828,49.399-35.313c5.968-6.271,12.168-13.646,17.667-21.029
					C689.174,242.079,710.954,211.791,723.315,190.324z"/>
			</g>
			<g display="inline">
				<path fill="#FFFFFF" d="M514.847,300.244c-8.886,7.584-17.301,11.671-18.37,8.028c-1.29,6.727,8.236,2.62,18.37-6.028
					c15.894-14.409,38.557-42.051,52.095-62.341c4.415-10.292,10.302-22.055,16.482-23.819c7.621-2.268,12.73,1.711,13.528,5.497
					c0.98-4.139-4.525-10.176-13.528-7.497c-6.181,1.764-12.067,13.527-16.482,23.819
					C553.403,258.193,530.74,285.835,514.847,300.244z"/>
				<path fill="#FFFFFF" d="M506.95,247.412c-0.327,1.483-1.302,3.283-2.993,5.194c-9.418,10.88-25.9,29.7-30.021,41.757
					c-1.59,4.845-2.228,8.954-2.091,12.381c0.132-2.994,0.799-6.446,2.091-10.381c4.12-12.057,20.603-30.877,30.021-41.757
					C506.515,251.718,507.432,249.083,506.95,247.412z"/>
				<path fill="#FFFFFF" d="M453.334,281.66c11.773-9.704,26.783-27.348,37.967-35.875c15.42-11.852,33.887-7.074,34.619,8.003
					c0.87-16.64-18.535-22.364-34.619-10.003c-11.184,8.527-26.194,26.171-37.967,35.875c-1.911,1.562-2.378,3.524-1.781,4.334
					C451.852,283.235,452.425,282.402,453.334,281.66z"/>
				<path fill="#FFFFFF" d="M375.458,358.222c0.549-1.602,2.582-0.866,2.824,1.07c4.12,22.055,23.251,37.051,45.325,37.051
					c30.609,0,62.985-26.465,88.885-61.752c18.248-24.995,32.964-52.637,47.092-79.984c-1.411,2.155-2.896,4.334-4.414,6.504
					c-12.802,24.541-26.319,49.074-42.678,71.48c-25.899,35.287-58.275,61.752-88.885,61.752c-22.074,0-41.205-14.996-45.325-37.051
					c-0.295-2.353-3.238-2.94-2.944,0.294C375.375,357.802,375.42,358.007,375.458,358.222z"/>
			</g>
			<g display="inline">
				<path fill="#FFFFFF" d="M320.568,279.74c-10.301,5.294-22.663,8.234-27.666,8.234c-4.696,0-5.261,1.495-2.761,2.249
					c0.676-0.152,1.583-0.249,2.761-0.249c5.003,0,17.365-2.94,27.666-8.234c11.909-6.466,16.244-13.614,15.613-18.794
					C335.626,267.878,331.01,274.07,320.568,279.74z"/>
				<path fill="#FFFFFF" d="M364.624,283.953c-5.54,14.862-8.75,28.675-8.607,39.965c0.25-11.731,3.885-25.968,9.827-41.166
					C365.438,283.158,365.03,283.554,364.624,283.953z"/>
				<path fill="#FFFFFF" d="M276.883,308.513c-0.39,9.535,4.716,16.421,15.136,16.161c16.581-0.237,43.261-19.898,60.258-34.465
					c0.48-0.6,1.064-1.227,1.794-1.869c6.181-5.293,11.184-12.057,17.954-20.29c19.72-43.521,42.382-77.044,77.112-109.097
					c34.491-31.688,63.238-26.826,64.218-6.708c0.864-21.762-28.612-28.003-64.218,4.708
					c-34.73,32.053-57.393,65.575-77.112,109.097c-6.77,8.233-11.773,14.997-17.954,20.29c-0.729,0.643-1.313,1.27-1.794,1.869
					c-16.997,14.566-43.677,34.228-60.258,34.465C282.343,322.915,277.25,316.994,276.883,308.513z"/>
				<path fill="#FFFFFF" d="M430.594,224.881c-3.229,1.358-3.702,3.006-2.738,3.819c0.477-0.601,1.353-1.237,2.738-1.819
					c18.248-8.234,44.737-27.348,58.865-42.051c12.647-13.291,17.574-22.541,16.842-27.207c-0.646,5.083-5.802,13.605-16.842,25.207
					C475.331,197.533,448.842,216.647,430.594,224.881z"/>
				<path fill="#FFFFFF" d="M427.062,274.519c7.566-5.8,10.82-12.909,10.389-18.367c-0.397,5.121-3.717,11.254-10.389,16.367
					c-11.184,8.528-33.258,14.997-40.322,10.88l-1.472-0.882c-0.623-1.036-1.24-2.073-1.759-3.109
					c-0.197,0.233-0.4,0.463-0.595,0.699c0.589,1.47,1.472,2.94,2.354,4.41l1.472,0.882
					C393.804,289.516,415.878,283.047,427.062,274.519z"/>
				<path fill="#FFFFFF" d="M450.313,306c0,5-5.003,8.255-10.595,9.137c-12.496,1.942-36.513-11.67-49.571-26.562
					c-0.777-0.197-1.527-0.369-2.23-0.634c12.362,15.879,38.556,31.438,51.801,29.379c5.592-0.883,10.595-4.483,10.595-8.916
					c0-0.603,0.971-0.906,1.331-0.524c0.083-0.545,0.141-0.879,0.141-1.879H450.313z"/>
				<path fill="#FFFFFF" d="M322.334,246.453c14.172,0.417,21.252,6.143,21.876,13.463c0.573-8.252-6.438-15.009-21.876-15.463
					c-32.67-1.176-71.814,26.76-71.52,61.753c0.002,0.12,0.012,0.235,0.015,0.354C251.75,272.342,290.178,245.296,322.334,246.453z"
					/>
				<path fill="#FFFFFF" d="M426.768,236.343c-10.773,4.357-23.336,13.189-36.518,28.818c-2.124,3.287-4.092,6.426-5.864,9.354
					c15.305-20.29,30.021-31.174,42.382-36.173c17.671-6.791,30.812-1.038,31.557,9.844
					C459.133,236.034,445.493,229.147,426.768,236.343z"/>
				<path fill="#FFFFFF" d="M364.828,331.673c-0.115,6.95,1.041,12.514,3.552,15.626c0.51-0.253,0.769-0.87,0.112-1.853
					C366.149,342.659,364.951,337.792,364.828,331.673z"/>
			</g>
			<g display="inline">
				<path fill="#FFFFFF" d="M236.002,242.865c0.458-0.489,1.109-0.857,1.605-0.857c3.532-0.294,9.713,1.176,12.067,10.292
					c0.521,2.247,0.81,4.655,0.882,7.203c0.05-3.293-0.227-6.379-0.882-9.203c-2.354-9.116-8.535-10.586-12.067-10.292
					C236.464,240.008,234.5,241.945,236.002,242.865z"/>
				<path fill="#FFFFFF" d="M58.45,357.785c0.575-1.344,2.627-0.595,2.859,1.259c4.12,22.055,22.957,37.051,45.031,37.051
					c27.667,0,67.989-33.816,94.477-70.574c6.77-9.115,24.429-35.287,33.553-55.577c-0.702,0.886-1.422,1.743-2.151,2.571
					c-9.519,19.483-25.13,42.562-31.402,51.006c-26.488,36.758-66.811,70.574-94.477,70.574c-22.074,0-40.911-14.996-45.031-37.051
					c-0.294-2.354-3.532-2.94-2.943,0.294C58.391,357.489,58.423,357.634,58.45,357.785z"/>
				<path fill="#FFFFFF" d="M216.71,281.412c5.887-4.705,20.897-18.526,22.957-30.582c0-0.505-0.047-0.974-0.117-1.425
					c-2.426,11.918-17.047,25.376-22.84,30.007c-0.628,0.628-0.61,1.576-0.271,2.367
					C216.513,281.649,216.598,281.524,216.71,281.412z"/>
			</g>
			<path display="inline" fill="#FFFFFF" d="M252.618,213.19c5.298-6.175,13.245-8.234,17.66-4.705
				c1.633,1.306,2.537,3.217,2.75,5.417c0.248-3.03-0.639-5.73-2.75-7.417c-4.415-3.529-12.362-1.47-17.66,4.705
				c-3.528,3.896-5.176,8.374-4.808,12.038C248.088,220.007,249.709,216.401,252.618,213.19z"/>
		</g>
	</g>
</g>
</svg>
