<?xml version="1.0" encoding="utf-8"?>
<!-- Generator: Adobe Illustrator 16.0.0, SVG Export Plug-In . SVG Version: 6.00 Build 0)  -->
<!DOCTYPE svg PUBLIC "-//W3C//DTD SVG 1.1//EN" "http://www.w3.org/Graphics/SVG/1.1/DTD/svg11.dtd">
<svg version="1.1" id="Layer_1" xmlns="http://www.w3.org/2000/svg" xmlns:xlink="http://www.w3.org/1999/xlink" x="0px" y="0px"
	 width="209.9px" height="57.6px" viewBox="0 0 209.9 57.6" enable-background="new 0 0 209.9 57.6" xml:space="preserve">
<g>
	<path fill="#FFFFFF" d="M28.5,5.3c0,0.4-0.1,0.7-0.1,1.2c-0.1,0.4-0.1,0.8-0.2,1.2c-0.1,0.4-0.1,0.7-0.1,0.9
		c-0.3,1.4-0.7,3.2-1.3,5.3c-0.6,2.1-1.4,4.3-2.3,6.6c-0.9,2.3-1.9,4.6-3,6.8c-1.1,2.3-2.2,4.3-3.4,6c-2,3-4.1,5.5-6.3,7.5
		c-2.2,2-4.4,3.4-6.4,4.1c-0.4-0.4-0.7-0.7-0.9-1.2c-0.1-0.4-0.1-0.9-0.1-1.5c0.2-0.9,0.7-2,1.5-3.3c0.9-1.3,1.9-2.4,3.1-3.5
		c-0.1-0.3-0.4-0.5-0.8-0.8C7.9,34.5,7.5,34.2,7,34c-0.5-0.2-1-0.4-1.4-0.6c-0.5-0.2-0.9-0.3-1.3-0.3C3,35,2,36.6,1.3,38
		c-0.7,1.4-1.1,2.5-1.3,3.4c-0.1,0.8-0.1,1.6,0.2,2.3c0.3,0.7,0.8,1.3,1.5,1.8c0.7,0.5,1.6,0.9,2.6,1.2c1,0.3,2.2,0.4,3.5,0.4
		c1-0.2,2.1-0.6,3.3-1.3c1.2-0.7,2.5-1.5,3.8-2.6c1.3-1.1,2.6-2.4,3.9-3.8c1.3-1.4,2.5-3.1,3.8-4.9c1.2-1.9,2.5-3.9,3.7-6.3
		c1.2-2.3,2.5-4.9,3.8-7.8c0.3-0.8,0.7-1.6,1-2.5c0.4-0.9,0.8-1.9,1.2-2.9c0.4-1.1,0.9-2.3,1.4-3.6c0.5-1.3,1.1-2.8,1.7-4.4
		c-0.9-0.7-1.9-1.3-3.2-1.7c-1.2-0.4-2.5-0.7-3.7-0.7C28.6,4.7,28.5,4.9,28.5,5.3z"/>
	<path fill="#FFFFFF" d="M45,17.4c-1.1,0-2.2,0.2-3.3,0.7c-1.2,0.5-2.3,1.1-3.5,2c-1.2,0.8-2.3,1.8-3.3,2.9
		c-1.1,1.1-2.1,2.3-2.9,3.6c-0.9,1.3-1.6,2.6-2.2,3.9c-0.6,1.4-1,2.7-1.3,4c-0.3,1.9,0,3.6,1,4.9c1,1.4,2.6,2.2,4.7,2.4
		c1.6-0.4,3.4-1.2,5.3-2.4c1.9-1.3,3.8-2.9,5.6-4.8c-0.2-0.3-0.4-0.5-0.7-0.8c-0.6,0.5-1.3,1.1-2.1,1.8c-0.8,0.7-1.6,1.3-2.4,1.8
		c-0.9,0.6-1.7,1-2.6,1.4c-0.9,0.4-1.8,0.6-2.6,0.6c-0.4,0-0.8-0.1-1-0.4c-0.2-0.2-0.4-0.6-0.5-0.9s-0.1-0.8-0.1-1.2
		c0-0.4,0.1-0.9,0.1-1.3c0-0.2,0.1-0.4,0.1-0.6c0.1-0.2,0.1-0.4,0.1-0.6c2.2-0.8,4.1-1.6,5.8-2.5c1.7-0.9,3.2-1.8,4.4-2.9
		c1.3-1.1,2.3-2.3,3.1-3.7c0.8-1.4,1.5-3.1,2-5.1C47.7,18.5,46.5,17.6,45,17.4L45,17.4z M41.3,27.8c-2,1.9-4.4,3.4-7.2,4.7
		c0.6-1.5,1.4-2.8,2.3-4.1c0.9-1.3,1.8-2.4,2.8-3.4s2-1.7,3-2.3c1-0.6,2-0.9,2.9-1.1C44.6,23.9,43.3,26,41.3,27.8z"/>
	<path fill="#FFFFFF" d="M48.1,38.2c0.1,0.7,0.2,1.2,0.5,1.4c0.2,0.2,0.3,0.4,0.4,0.6c0.1,0.2,0.3,0.6,0.5,0.9
		c0.2,0.4,0.7,0.7,1.7,0.8c0-0.3,0-0.7,0.1-1.1c0.1-0.7,0.3-1.5,0.6-2.4c0.3-0.9,0.6-1.7,1-2.6c0.4-0.9,0.8-1.7,1.3-2.6
		c0.5-0.8,0.9-1.6,1.4-2.2c1.2-1.6,2.4-3.1,3.7-4.5c1.3-1.4,2.5-2.6,3.6-3.6c1.2-1,2.2-1.8,3.2-2.4c1-0.6,1.8-0.9,2.4-0.9
		c0.4,0,0.5,0.1,0.5,0.4c-0.3,2-2.2,4.3-5.5,7c-0.9,0.7-1.7,1.4-2.5,1.9c-0.8,0.6-1.4,1-1.9,1.3c0,2,0.1,3.9,0.2,5.7
		c0.1,1.8,0.3,3.4,0.6,4.7c0.3,1.6,0.8,2.9,1.4,3.7c0.6,0.9,1.3,1.3,2.2,1.3c0.5,0,1-0.1,1.6-0.2c0.6-0.1,1.1-0.3,1.6-0.6
		c0.5-0.2,0.9-0.5,1.3-0.8c0.4-0.3,0.7-0.6,0.9-1c-1-0.6-1.9-1.4-2.6-2.4c-0.7-0.9-1.3-1.9-1.8-3c-0.5-1.1-0.9-2.2-1.2-3.4
		c-0.3-1.2-0.5-2.3-0.6-3.4c1-0.2,2-0.6,3-1.2c1-0.6,1.9-1.4,2.7-2.3c0.8-0.9,1.6-1.8,2.2-2.9c0.6-1,1-2.1,1.2-3.1
		c0.3-1.7-0.2-3.1-1.4-4.1c-1,0-2,0.3-3.2,0.8c-1.2,0.6-2.4,1.4-3.7,2.4c-1.3,1-2.6,2.3-4,3.7c-1.4,1.4-2.7,3-4.1,4.8
		c1.2-2.3,2.6-4.7,4.1-7.1c1.6-2.4,3.2-4.7,4.9-6.9c1.7-2.2,3.5-4.1,5.3-6c1.8-1.8,3.5-3.3,5.2-4.4c0.1-0.4,0-0.9-0.2-1.5
		c-0.2-0.5-0.5-1.1-0.9-1.6c-0.4-0.5-0.8-0.9-1.2-1.3C72,0.2,71.6,0,71.1,0c-0.9,0.6-2.1,1.7-3.5,3.3c-1.4,1.6-2.9,3.6-4.6,5.8
		c-1.6,2.2-3.3,4.7-5,7.2c-1.7,2.6-3.2,5.1-4.6,7.5c-1.4,2.4-2.6,4.7-3.5,6.7c-1,2-1.5,3.6-1.7,4.8C48.1,36.5,48,37.5,48.1,38.2z"/>
	<path fill="#FFFFFF" d="M94,26.4c1.2-2,2.5-4.1,3.9-6.2c-0.1-0.2-0.3-0.4-0.6-0.6c-0.3-0.2-0.7-0.3-1.1-0.5
		c-0.4-0.1-0.9-0.3-1.3-0.4c-0.5-0.1-0.9-0.1-1.3-0.1c-1,1.3-1.9,2.5-2.8,3.7c-0.9,1.2-1.7,2.4-2.6,3.6c-0.8,1.2-1.7,2.3-2.5,3.4
		c-0.8,1.1-1.7,2.3-2.7,3.4c-1.5,1.8-2.9,3.1-4,4c-1.1,0.8-2,1.3-2.6,1.4c-0.1-0.1-0.1-0.2-0.2-0.3c-0.1-0.1-0.1-0.3,0-0.6
		c0.1-0.4,0.3-1,0.5-1.7c0.3-0.7,0.6-1.4,0.9-2.2c0.3-0.7,0.7-1.4,1-2.1c0.3-0.7,0.6-1.2,0.8-1.5c2-3.4,3.8-6,5.3-7.9
		c1.5-1.8,2.5-2.9,2.9-3.2c-0.2-0.3-0.5-0.5-0.9-0.7c-0.4-0.2-0.7-0.3-1.1-0.5c-0.4-0.1-0.8-0.2-1.2-0.3c-0.4,0-0.7-0.1-0.9-0.1
		c-1.1,0.7-2.3,1.8-3.4,3C79,21.6,78,23,76.9,24.5c-1,1.5-1.9,3-2.8,4.5s-1.5,2.9-2,4.1c-0.3,0.7-0.5,1.3-0.7,1.8
		c-0.2,0.6-0.3,1.3-0.5,2.2c0,0.6,0.2,1.1,0.5,1.5c0.3,0.5,0.7,0.8,1.1,1.2s0.9,0.6,1.5,0.7c0.5,0.2,1,0.3,1.6,0.3
		c0.8-0.3,1.6-0.8,2.5-1.5c0.9-0.7,1.8-1.6,2.7-2.5c0.9-0.9,1.7-1.8,2.5-2.8c0.8-0.9,1.4-1.7,2-2.3c-1.5,3.5-3.1,6.6-4.9,9.4
		c-1.8,2.8-3.6,5.2-5.5,7.2s-3.8,3.5-5.7,4.6c-1.9,1.1-3.8,1.6-5.6,1.6c-0.4,0-0.7,0-0.9,0c-0.3,0-0.5-0.1-0.7-0.2
		c-0.2-0.1-0.4-0.3-0.7-0.5c-0.2-0.2-0.5-0.5-0.8-0.8c-0.5,0.3-0.8,0.6-0.8,1c0.1,0.4,0.4,0.9,0.9,1.3c0.5,0.4,1,0.8,1.6,1.1
		c0.6,0.3,1.3,0.5,2.1,0.7c0.8,0.2,1.5,0.3,2.3,0.3c1.6,0,3.2-0.4,4.9-1.2c1.7-0.8,3.4-2,5.2-3.5c1.4-1.2,2.6-2.5,3.8-3.9
		s2.4-2.8,3.5-4.5c1.1-1.6,2.2-3.4,3.3-5.3c1.1-1.9,2.2-4,3.3-6.4C91.6,30.5,92.7,28.4,94,26.4z"/>
	<path fill="#FFFFFF" d="M95,39.7c0,0.8,0.2,1.3,0.5,1.5c0.2,0.2,0.4,0.4,0.6,0.7c0.2,0.3,0.4,0.5,0.4,0.7c0.1,0.2,0.2,0.4,0.5,0.6
		c0.3,0.2,0.7,0.3,1.1,0.3c0-0.1,0-0.3,0-0.4c0-0.1,0.1-0.5,0.2-1c0.4-2,1.2-4.5,2.4-7.6c1.2-3,2.9-6.4,4.9-10.2
		c2.3-4.4,4.8-8.3,7.2-11.7c2.5-3.4,5.2-6.6,8.3-9.5c-0.1-0.2-0.3-0.4-0.7-0.8c-0.4-0.3-0.8-0.6-1.3-0.9c-0.5-0.3-1-0.6-1.5-0.8
		c-0.5-0.3-1-0.4-1.3-0.5c-2,2-4.2,4.8-6.6,8.4c-2.4,3.6-5,8.1-8,13.5c-1.8,3.4-3.3,6.4-4.4,8.9c-1.1,2.5-1.8,4.5-2.1,5.9
		C95,38,94.9,38.9,95,39.7z"/>
	<path fill="#FFFFFF" d="M106.3,39.7c0,0.8,0.2,1.3,0.5,1.5c0.2,0.2,0.4,0.4,0.6,0.7c0.2,0.3,0.4,0.5,0.4,0.7
		c0.1,0.2,0.2,0.4,0.5,0.6s0.7,0.3,1.1,0.3c0-0.1,0-0.3,0-0.4c0-0.1,0.1-0.5,0.2-1c0.4-2,1.2-4.5,2.4-7.6c1.2-3,2.9-6.4,4.9-10.2
		c2.3-4.4,4.8-8.3,7.2-11.7c2.5-3.4,5.2-6.6,8.3-9.5c-0.1-0.2-0.3-0.4-0.7-0.8c-0.4-0.3-0.8-0.6-1.3-0.9c-0.5-0.3-1-0.6-1.5-0.8
		c-0.5-0.3-1-0.4-1.3-0.5c-2,2-4.2,4.8-6.6,8.4c-2.4,3.6-5,8.1-8,13.5c-1.8,3.4-3.3,6.4-4.4,8.9c-1.1,2.5-1.8,4.5-2.1,5.9
		C106.3,38,106.3,38.9,106.3,39.7z"/>
	<path fill="#FFFFFF" d="M146.8,10.8c1.2-0.1,2.5-0.2,3.9-0.4c-0.3,0.7-0.7,1.6-1.1,2.4c-0.4,0.9-0.9,1.8-1.4,2.8s-1,1.9-1.5,2.9
		c-0.5,1-1,1.9-1.5,2.8c-1.3,2.4-2.4,4.5-3.4,6.4c-1,1.9-1.9,3.6-2.6,5.1c-0.8,1.5-1.4,2.8-2,4S136,39,135.5,40c1,2.4,2.6,3.7,4.7,4
		c0.5-1.3,1-2.7,1.5-4.1c0.5-1.4,1.1-2.9,1.8-4.5c0.7-1.6,1.4-3.2,2.3-5s1.8-3.8,2.9-5.9c0.5-1.1,1.2-2.3,1.9-3.7
		c0.7-1.4,1.5-2.7,2.2-4.1c0.8-1.4,1.5-2.7,2.3-4s1.5-2.4,2.1-3.3c1.1-0.1,2.1-0.2,3.2-0.2c1,0,2.1,0,3.1,0c0.6,0,1.3,0,2.1,0
		s1.6,0,2.4,0.1c0-1.5-0.2-2.6-0.6-3.5c-0.4-0.9-1.2-1.3-2.3-1.3c-0.4,0-1.4,0.1-2.8,0.3c-1.5,0.2-3.2,0.4-5.1,0.6s-3.9,0.3-6,0.3
		c-2.1,0-3.9,0-5.5,0c-1.1,0-2,0-2.8-0.1c-0.8,0-1.4-0.1-1.8-0.2c-0.2,0.3-0.3,0.6-0.5,0.9c-0.1,0.4-0.2,0.7-0.3,0.9
		c-0.2,1,0,1.9,0.6,2.6c0.6,0.7,1.5,1.1,2.8,1.1C144.5,10.9,145.6,10.9,146.8,10.8z"/>
	<path fill="#FFFFFF" d="M155.8,38.6c0.2,0.5,0.5,0.9,0.9,1.3s0.7,0.6,1,0.7c0.4,0.2,0.6,0.2,0.7,0.2c0.2,0,0.3-0.1,0.3-0.4
		s0.1-0.6,0.2-1.2c0.2-0.7,0.5-1.5,0.9-2.5c0.5-0.9,0.9-1.9,1.4-2.8c0.6-1.1,1.2-2.1,1.7-3c0.5-1,1-1.9,1.6-2.8
		c0.6-0.9,1.2-1.8,1.8-2.6c0.6-0.8,1.4-1.7,2.3-2.5c-0.5-0.9-1.1-1.7-1.9-2.2c-0.8-0.5-1.5-0.9-2-1c-0.8,0.4-1.5,0.9-2.2,1.6
		c-0.7,0.7-1.2,1.5-1.7,2.3c-0.5,0.8-0.9,1.5-1.3,2.2c-0.3,0.7-0.6,1.2-0.7,1.5c-0.6,1.4-1.1,2.7-1.4,3.7c-0.4,1-0.7,1.9-1,2.6
		c-0.3,0.7-0.4,1.3-0.6,1.7c-0.1,0.4-0.2,0.8-0.3,1.1C155.5,37.5,155.6,38.1,155.8,38.6z M168.8,16.8c0.2,0.3,0.5,0.4,0.9,0.5
		c0.2-0.3,0.5-0.7,1.1-1.3c0.6-0.6,1.2-1.3,1.8-1.9c0.7-0.7,1.3-1.3,2-2s1.2-1.1,1.7-1.5c-0.2-0.4-0.5-0.7-0.9-1.1
		c-0.4-0.4-0.9-0.8-1.4-1.1c-0.5-0.3-1-0.6-1.6-0.8c-0.5-0.2-1-0.3-1.4-0.3c-0.3,0.5-0.6,1.1-0.9,1.7c-0.3,0.6-0.6,1.2-0.8,1.8
		c-0.2,0.6-0.4,1.1-0.6,1.6c-0.2,0.5-0.3,0.9-0.3,1.2c0,0.3,0,0.5,0,0.9c0.1,0.3,0.1,0.6,0.3,0.7c-0.2,0.4-0.3,0.7-0.3,0.9
		C168.4,16.2,168.5,16.5,168.8,16.8z"/>
	<path fill="#FFFFFF" d="M160.4,56.2c0.1,0.1,0.2,0.3,0.4,0.6c0.2,0.4,0.4,0.7,0.8,0.8c1-2.3,2-4.7,3-7c1-2.4,2.1-4.6,3-6.6
		c1-2.1,1.9-4,2.8-5.6s1.6-3,2.3-4.1c0.5-0.8,0.9-1.4,1.2-1.9c0.4-0.5,0.8-1.1,1.4-1.7c0.5-0.6,1.2-1.3,2-2.2c0.8-0.9,1.9-2,3.3-3.4
		c1.2-1.2,2.3-2.2,3.4-3c1.1-0.8,2.3-1.4,3.7-2.1c-0.7,2-1.7,4.1-2.8,6c-1.1,2-2.3,3.8-3.6,5.5c-1.3,1.7-2.7,3.2-4.1,4.5
		c-1.4,1.3-2.8,2.3-4.2,3.1c0.1,0.4,0.3,0.6,0.7,0.9c0.4,0.2,0.9,0.4,1.4,0.4c0.6,0,1.3-0.1,2.1-0.4c0.8-0.3,1.7-0.7,2.6-1.2
		c0.9-0.5,1.8-1.1,2.6-1.7c0.8-0.6,1.6-1.3,2.3-2c1.8-1.8,3.2-3.9,4.4-6.1c1.2-2.3,2-4.5,2.4-6.8c0.2-1.1-0.1-1.9-0.7-2.6
		c-0.7-0.7-1.6-1-2.8-1c-0.8,0-1.7,0.3-2.9,1c-1.2,0.7-2.4,1.6-3.8,2.8c-1.3,1.1-2.2,2-2.8,2.6c-0.6,0.6-1.1,1.2-1.6,1.8
		c0.4-0.8,0.9-1.8,1.5-2.9c0.6-1.1,1.3-2.2,2.1-3.2c0.7-1,1.5-2,2.2-2.9c0.7-0.9,1.4-1.5,1.9-1.9c-0.2-0.4-0.7-0.8-1.6-1.2
		c-0.9-0.4-1.9-0.7-3-0.9c-0.3,0.3-0.7,0.6-1.2,1.1c-0.4,0.5-0.9,1-1.3,1.6c-0.4,0.6-0.8,1.1-1.2,1.7c-0.4,0.5-0.6,1-0.8,1.4
		c-0.3,0.5-0.6,1.2-1,2c-0.4,0.8-0.9,1.7-1.6,2.9c-0.6,1.2-1.4,2.6-2.3,4.2c-0.9,1.6-2,3.5-3.3,5.7c-1,1.8-2,3.5-2.8,5.2
		c-0.9,1.7-1.6,3.3-2.3,4.8c-0.7,1.5-1.2,2.8-1.6,4c-0.4,1.2-0.7,2.1-0.8,2.8c-0.1,0.7-0.2,1.4-0.3,2c-0.1,0.6-0.1,1.1,0,1.5
		c-0.1,0.8,0.1,1.3,0.5,1.4C160.2,56,160.3,56.1,160.4,56.2z"/>
	<path fill="#FFFFFF" d="M209.4,19.4c-0.3-0.6-0.8-1.2-1.2-1.8c-0.5-0.6-1-1.1-1.5-1.6c-0.5-0.5-0.9-0.7-1.3-0.8
		c-0.9,0.2-1.7,0.5-2.6,1.1c-0.9,0.5-1.6,1.1-2.3,1.9c-0.7,0.7-1.3,1.5-1.8,2.4s-0.8,1.7-1,2.6c-0.1,0.7-0.2,1.4-0.1,2
		c0,0.7,0.1,1.4,0.1,2.1c0,0.7,0.1,1.5,0.1,2.2c0,0.8,0,1.6-0.2,2.4c-1.4,0-2.8,0.3-4.1,0.8c-1.3,0.5-2.5,1.2-3.5,2.1
		c-1,0.9-1.9,1.8-2.6,3c-0.7,1.1-1.2,2.3-1.4,3.5c0,0.4,0.2,0.9,0.4,1.3c0.2,0.4,0.6,0.8,0.9,1.2c0.4,0.4,0.8,0.6,1.2,0.9
		c0.4,0.2,0.9,0.4,1.3,0.4c2.6-0.3,4.8-1.2,6.6-2.8c1.7-1.6,2.9-3.8,3.3-6.5c0.1-0.4,0.1-0.7,0.1-1c0-0.3,0.1-0.5,0.1-0.8
		c0-0.2,0.1-0.3,0.2-0.5c0.1-0.1,0.2-0.2,0.5-0.3c0.2-0.1,0.6-0.2,1-0.3c0.5-0.1,1.1-0.2,1.8-0.4c0.1-0.1,0.3-0.3,0.3-0.6
		c0-0.2,0-0.3,0-0.4c-0.5,0-1,0-1.6,0c-0.5,0-1.1,0-1.8,0c0-0.1,0-0.3,0.1-0.6c0.5-3.1,1.3-5.4,2.2-7c1-1.6,2.1-2.4,3.3-2.4
		c0.4,0,0.6,0.2,0.8,0.5c0.2,0.3,0.2,0.7,0.1,1.1c0,0.2-0.1,0.4-0.2,0.7c-0.1,0.3-0.3,0.5-0.4,0.8c-0.1,0.3-0.3,0.5-0.4,0.7
		c-0.1,0.2-0.2,0.4-0.2,0.5c0,0.4,0.2,0.7,0.5,0.7c0.3,0,0.6-0.2,0.9-0.5c0.3-0.4,0.7-0.8,1-1.3c0.3-0.5,0.7-1.1,1-1.8
		c0.3-0.7,0.5-1.3,0.6-1.9C209.9,20.4,209.7,20,209.4,19.4z M189.6,41c0.1-0.5,0.4-1.2,1-1.9s1.3-1.4,2.1-2.1
		c0.8-0.7,1.6-1.3,2.5-1.8c0.9-0.5,1.6-0.8,2.3-0.9c-0.1,0.8-0.4,1.7-0.9,2.5c-0.5,0.9-1,1.7-1.7,2.4s-1.4,1.5-2.2,2.1
		c-0.8,0.6-1.6,1.1-2.4,1.4C189.7,42.3,189.5,41.7,189.6,41L189.6,41z"/>
</g>
</svg>
